<svg width="310" height="204" viewBox="0 0 310 204" fill="none" xmlns="http://www.w3.org/2000/svg">
<rect x="105.5" y="0.5" width="99" height="99" rx="4.5" stroke="black"/>
<rect x="105.5" y="104.5" width="99" height="99" rx="4.5" fill="#AAAAAA" stroke="black"/>
<rect x="210.5" y="104.5" width="99" height="99" rx="4.5" stroke="black"/>
<rect x="0.5" y="104.5" width="99" height="99" rx="4.5" stroke="black"/>
<path d="M148.404 68.53V46.447H140.601L154.881 32.167L169.161 46.447H161.358V68.53H148.404ZM149.934 67H159.828V44.917H165.438L154.881 34.36L144.324 44.917H149.934V67Z" fill="black"/>
<path d="M154.881 174.53L140.601 160.25H148.404V138.167H161.358V160.25H169.161L154.881 174.53ZM154.881 172.337L165.438 161.78H159.828V139.697H149.934V161.78H144.324L154.881 172.337Z" fill="black"/>
<path d="M264.684 167.838V160.035H242.601V147.081H264.684V139.278L278.964 153.558L264.684 167.838ZM266.214 164.115L276.771 153.558L266.214 143.001V148.611H244.131V158.505H266.214V164.115Z" fill="black"/>
<path d="M42.881 167.838L28.601 153.558L42.881 139.278V147.081H64.964V160.035H42.881V167.838ZM41.351 164.115V158.505H63.434V148.611H41.351V143.001L30.794 153.558L41.351 164.115Z" fill="black"/>
</svg>
