<?xml version="1.0" encoding="UTF-8"?>
<svg width="1050px" height="1000px" viewBox="0 0 1050 1000" version="1.1" xmlns="http://www.w3.org/2000/svg" xmlns:xlink="http://www.w3.org/1999/xlink">
    <!-- Generator: Sketch 42 (36781) - http://www.bohemiancoding.com/sketch -->
    <title>Artboard</title>
    <desc>Created with Sketch.</desc>
    <defs>
        <linearGradient x1="49.9958748%" y1="100.000395%" x2="49.9958748%" y2="-0.00120042547%" id="linearGradient-1">
            <stop stop-color="#6BB8FF" offset="0%"></stop>
            <stop stop-color="#72B9F6" offset="8.113562%"></stop>
            <stop stop-color="#87BDDF" offset="21.17%"></stop>
            <stop stop-color="#A8C3B8" offset="37.53%"></stop>
            <stop stop-color="#D6CB83" offset="56.37%"></stop>
            <stop stop-color="#FBD158" offset="70.17%"></stop>
            <stop stop-color="#FCD156" offset="100%"></stop>
        </linearGradient>
        <polygon id="path-2" points="3.37791632e-20 0.592875 3.37791632e-20 57.900375 52.9007678 57.900375 52.9007678 0.592875 0 0.592875"></polygon>
        <polygon id="path-4" points="0.265821106 46.25 44.1049805 46.25 44.1049805 0.834 0.265821106 0.834 0.265821106 46.25"></polygon>
        <polygon id="path-6" points="20.3600462 0.07375 0.061439196 0.07375 0.061439196 63.7495 20.3600462 63.7495 20.3600462 0.07375"></polygon>
        <polygon id="path-8" points="41.7887477 46.25 0.23441608 46.25 0.23441608 0.833125 41.7887477 0.833125"></polygon>
        <polygon id="path-10" points="-0.00039798995 0.07375 42.7378533 0.07375 42.7378533 63.75 -0.00039798995 63.75 -0.00039798995 0.07375"></polygon>
        <polygon id="path-12" points="0.849306533 46.25 44.6896776 46.25 44.6896776 0.834 0.849306533 0.834 0.849306533 46.25"></polygon>
        <polygon id="path-14" points="42.1239839 46.25 0.570898492 46.25 0.570898492 0.833125 42.1239839 0.833125"></polygon>
        <polygon id="path-16" points="0.087360804 0.07375 42.8268583 0.07375 42.8268583 63.75 0.087360804 63.75 0.087360804 0.07375"></polygon>
        <polygon id="path-18" points="0.201117588 46.25 44.0414887 46.25 44.0414887 0.834 0.201117588 0.834"></polygon>
        <polygon id="path-20" points="40.2520201 45.400375 40.2520201 0.834125 0.308192965 0.834125 0.308192965 45.400375 40.2520201 45.400375"></polygon>
    </defs>
    <g id="Page-1" stroke="none" stroke-width="1" fill="none" fill-rule="evenodd">
        <g id="Artboard">
            <g id="smm_logo" transform="translate(204.000000, 45.000000)" fill-rule="nonzero" fill="url(#linearGradient-1)">
                <g id="Ebene_1">
                    <path d="M321.3,658.2 C144.2,658.2 0.1,510.6 0.1,329.1 C0.1,147.6 144.2,0.1 321.3,0.1 C498.4,0.1 642.5,147.7 642.5,329.2 C642.5,510.7 498.4,658.2 321.3,658.2 Z M321.3,26.3 C158.7,26.3 26.3,162.1 26.3,329.1 C26.3,496.1 158.6,632 321.3,632 C484,632 616.3,496.2 616.3,329.2 C616.3,162.2 483.9,26.3 321.3,26.3 Z" id="XMLID_210_"></path>
                </g>
            </g>
            <g id="Page-1" transform="translate(39.000000, 795.000000)">
                <g id="Group-3" transform="translate(0.000000, 5.176750)">
                    <mask id="mask-3" fill="white">
                        <use xlink:href="#path-2"></use>
                    </mask>
                    <g id="Clip-2"></g>
                    <path d="M19.3123457,35.246625 L31.2549789,35.246625 L33.2539337,22.907875 L21.3885668,22.907875 L19.3123457,35.246625 Z M31.7846271,36.496625 L18.5758231,36.496625 C18.3926271,36.496625 18.2181548,36.416625 18.0997628,36.275375 C17.9813709,36.134125 17.9302754,35.949125 17.9614312,35.767875 L20.2470191,22.179125 C20.2981146,21.877875 20.5573307,21.657875 20.8614111,21.657875 L33.9867176,21.657875 C34.1686673,21.657875 34.3431397,21.737875 34.4615317,21.877875 C34.5799236,22.017875 34.6310191,22.201625 34.6023558,22.382875 L32.4002653,35.971625 C32.3504161,36.274125 32.0899538,36.496625 31.7846271,36.496625 L31.7846271,36.496625 Z M28.9606673,56.650375 L34.6447276,56.650375 L37.0973106,41.969125 C37.148406,41.669125 37.4088683,41.447875 37.7129487,41.447875 L47.9283055,41.447875 L47.9283055,36.496625 L38.7286271,36.496625 C38.5466774,36.496625 38.372205,36.416625 38.2538131,36.276625 C38.1354211,36.136625 38.0843256,35.951625 38.1129889,35.771625 L40.3150794,22.182875 C40.3649286,21.880375 40.625391,21.657875 40.9307176,21.657875 L51.6545367,21.657875 L51.6545367,16.707875 L41.946396,16.707875 C41.7632,16.707875 41.5899739,16.626625 41.4715819,16.486625 C41.3531899,16.346625 41.3020945,16.161625 41.332004,15.980375 L43.666195,1.842875 L37.9858734,1.842875 L35.6167879,16.185375 C35.5669387,16.486625 35.3077226,16.707875 35.002396,16.707875 L21.8783357,16.707875 C21.6951397,16.707875 21.5206673,16.626625 21.4022754,16.486625 C21.2838834,16.346625 21.2340342,16.161625 21.2626975,15.980375 L23.5981347,1.842875 L17.8355618,1.842875 L15.5487276,16.181625 C15.5013709,16.484125 15.2396623,16.707875 14.9343357,16.707875 L4.8872201,16.707875 L4.8872201,21.657875 L13.8339136,21.657875 C14.0158633,21.657875 14.1890894,21.737875 14.3074814,21.877875 C14.4271196,22.017875 14.4782151,22.201625 14.4483055,22.382875 L12.2474613,35.971625 C12.1976121,36.274125 11.9371497,36.496625 11.6318231,36.496625 L1.24573266,36.496625 L1.24573266,41.447875 L10.6148985,41.447875 C10.7980945,41.447875 10.9725668,41.527875 11.0909588,41.669125 C11.2093508,41.809125 11.2604462,41.994125 11.2305367,42.176625 L8.81160201,56.650375 L14.5729286,56.650375 L16.9445065,41.972875 C16.9931095,41.670375 17.2535719,41.447875 17.5588985,41.447875 L30.684205,41.447875 C30.8661548,41.447875 31.0406271,41.527875 31.1590191,41.667875 C31.2774111,41.806625 31.3285065,41.991625 31.2998432,42.172875 L28.9606673,56.650375 Z M35.1718834,57.900375 L28.2278834,57.900375 C28.0459337,57.900375 27.8727075,57.820375 27.7530693,57.680375 C27.6359236,57.541625 27.5835819,57.355375 27.6134915,57.175375 L29.9526673,42.697875 L18.089793,42.697875 L15.7182151,57.375375 C15.6696121,57.677875 15.4091497,57.900375 15.1038231,57.900375 L8.0750794,57.900375 C7.89188342,57.900375 7.71741106,57.820375 7.5990191,57.679125 C7.48062714,57.539125 7.42953166,57.354125 7.46068744,57.171625 L9.87962211,42.697875 L0.622617085,42.697875 C0.278657286,42.697875 -0.000498492462,42.417875 -0.000498492462,42.072875 L-0.000498492462,35.871625 C-0.000498492462,35.526625 0.278657286,35.246625 0.622617085,35.246625 L11.1021749,35.246625 L13.1011296,22.907875 L4.26410452,22.907875 C3.92014472,22.907875 3.64098894,22.627875 3.64098894,22.282875 L3.64098894,16.082875 C3.64098894,15.737875 3.92014472,15.457875 4.26410452,15.457875 L14.4034412,15.457875 L16.6902754,1.119125 C16.7376322,0.816625 16.9993407,0.592875 17.3046673,0.592875 L24.3334111,0.592875 C24.516607,0.592875 24.6898332,0.674125 24.8082251,0.814125 C24.9266171,0.954125 24.9777126,1.139125 24.947803,1.320375 L22.6123658,15.457875 L34.4752402,15.457875 L36.8430794,1.115375 C36.8929286,0.814125 37.153391,0.592875 37.4587176,0.592875 L44.4014714,0.592875 C44.5846673,0.592875 44.7578935,0.674125 44.8775317,0.814125 C44.9959236,0.954125 45.0457729,1.139125 45.0158633,1.320375 L42.6816724,15.457875 L52.2776523,15.457875 C52.6216121,15.457875 52.9007678,15.737875 52.9007678,16.082875 L52.9007678,22.282875 C52.9007678,22.627875 52.6216121,22.907875 52.2776523,22.907875 L41.4603658,22.907875 L39.4614111,35.246625 L48.5514211,35.246625 C48.8953809,35.246625 49.1745367,35.526625 49.1745367,35.871625 L49.1745367,42.072875 C49.1745367,42.417875 48.8953809,42.697875 48.5514211,42.697875 L38.2401045,42.697875 L35.7862754,57.379125 C35.7364261,57.679125 35.4759638,57.900375 35.1718834,57.900375 L35.1718834,57.900375 Z" id="Fill-1" fill="#508ABF" mask="url(#mask-3)"></path>
                </g>
                <path d="M58.6604744,52.00775 C63.2603136,59.08775 71.0804141,62.6765 81.9151477,62.6765 C95.0641327,62.6765 103.562183,56.48775 103.562183,46.909 C103.562183,39.5965 100.164957,34.129 83.5850975,31.2165 C72.638203,29.244 68.7599317,26.77275 68.7599317,21.769 C68.7599317,16.33275 73.8233688,12.819 81.6609166,12.819 C89.3875497,12.819 93.9674492,15.52275 97.2699618,22.1065 L103.117278,16.82275 C98.2694392,9.559 91.4089367,6.1715 81.5761729,6.1715 C69.1288161,6.1715 60.4363538,12.97025 60.4363538,22.70275 C60.4363538,31.34025 66.1827256,35.7865 80.9293789,38.5665 C91.4226452,40.519 95.324595,42.91775 95.324595,47.419 C95.324595,52.89025 90.4057206,56.02775 81.830404,56.02775 C73.4706854,56.02775 67.8065648,53.02025 64.0753487,46.5765 L58.6604744,52.00775 Z M81.9151477,63.9265 C70.4099417,63.9265 62.141198,59.999 57.3369769,52.249 C57.1836905,52.00275 57.2210774,51.68275 57.4254593,51.47775 L63.7762533,45.10775 C63.9158312,44.969 64.1127357,44.91025 64.3071477,44.9315 C64.5015598,44.96025 64.6722935,45.08025 64.7657608,45.25525 C68.2477307,51.7515 73.6700824,54.77775 81.830404,54.77775 C89.6143638,54.77775 94.0783638,52.09525 94.0783638,47.419 C94.0783638,44.249 91.8401327,41.86775 80.7000724,39.794 C65.2206352,36.87775 59.1901226,32.08525 59.1901226,22.70275 C59.1901226,12.234 68.3960322,4.9215 81.5761729,4.9215 C92.0706854,4.9215 99.341198,8.629 104.455731,16.589 C104.620233,16.8465 104.575369,17.1865 104.348555,17.3915 L97.4892985,23.5915 C97.3422432,23.724 97.1378613,23.78025 96.9484342,23.74025 C96.7552683,23.70025 96.5920121,23.5715 96.5085146,23.3915 C93.3742432,16.68275 89.2118312,14.069 81.6609166,14.069 C74.5798312,14.069 70.0061628,17.0915 70.0061628,21.769 C70.0061628,25.399 72.2630874,27.90775 83.8031879,29.9865 C98.9187256,32.6415 104.808414,37.3865 104.808414,46.909 C104.808414,57.08775 95.6074894,63.9265 81.9151477,63.9265 L81.9151477,63.9265 Z" id="Fill-4" fill="#508ABF"></path>
                <path d="M134.245516,26.8955 C126.948832,26.8955 122.92849,31.98175 122.92849,41.218 C122.92849,50.4555 126.948832,55.54175 134.245516,55.54175 C141.598279,55.54175 145.647284,50.4555 145.647284,41.218 C145.647284,31.98175 141.598279,26.8955 134.245516,26.8955 M134.245516,56.79175 C126.262159,56.79175 121.682259,51.1155 121.682259,41.218 C121.682259,31.32175 126.262159,25.6455 134.245516,25.6455 C142.283707,25.6455 146.893516,31.32175 146.893516,41.218 C146.893516,51.1155 142.283707,56.79175 134.245516,56.79175 M134.245516,19.7605 C121.433013,19.7605 113.783646,27.78175 113.783646,41.218 C113.783646,54.65425 121.433013,62.67675 134.245516,62.67675 C147.058018,62.67675 154.707385,54.65425 154.707385,41.218 C154.707385,27.78175 147.058018,19.7605 134.245516,19.7605 M134.245516,63.92675 C120.652872,63.92675 112.537415,55.438 112.537415,41.218 C112.537415,26.99925 120.652872,18.5105 134.245516,18.5105 C147.838159,18.5105 155.953616,26.99925 155.953616,41.218 C155.953616,55.438 147.838159,63.92675 134.245516,63.92675" id="Fill-6" fill="#508ABF"></path>
                <path d="M185.56008,19.7605 C172.747578,19.7605 165.098211,27.78175 165.098211,41.218 C165.098211,54.65425 172.811136,62.67675 185.729568,62.67675 C194.661307,62.67675 200.944804,58.55175 203.492101,51.04175 L196.427216,48.6555 C195.077548,53.928 191.333869,56.708 185.56008,56.708 C177.576724,56.708 172.996824,51.093 172.996824,41.303 C172.996824,31.4055 177.576724,25.72925 185.56008,25.72925 C190.766834,25.72925 194.233849,28.373 195.871397,33.58925 L203.128201,30.67675 C200.174633,23.433 194.267497,19.7605 185.56008,19.7605 M185.729568,63.92675 C172.030995,63.92675 163.85198,55.438 163.85198,41.218 C163.85198,26.99925 171.967437,18.5105 185.56008,18.5105 C195.063839,18.5105 201.443296,22.648 204.517749,30.8055 C204.638633,31.12425 204.481608,31.4805 204.166312,31.60675 L195.699417,35.003 C195.534915,35.0705 195.349226,35.063 195.190955,34.983 C195.031437,34.90425 194.914291,34.7605 194.866935,34.588 C193.467417,29.46925 190.422874,26.97925 185.56008,26.97925 C178.36808,26.97925 174.243055,32.2005 174.243055,41.303 C174.243055,50.4305 178.263397,55.458 185.56008,55.458 C190.992402,55.458 194.292422,52.853 195.366673,47.7155 C195.402814,47.54175 195.512482,47.3905 195.667015,47.30175 C195.821548,47.21175 196.004744,47.193 196.175477,47.25175 L204.472884,50.05425 C204.793166,50.16175 204.968884,50.50675 204.870432,50.8305 C202.316905,59.15425 195.340503,63.92675 185.729568,63.92675" id="Fill-8" fill="#508ABF"></path>
                <path d="M219.431023,2.17875 C215.90045,2.17875 213.957576,3.9475 213.957576,7.16 C213.957576,10.4275 215.90045,12.225 219.431023,12.225 C222.906762,12.225 224.819727,10.4275 224.819727,7.16 C224.819727,3.90125 222.956611,2.17875 219.431023,2.17875 L219.431023,2.17875 Z M219.431023,13.475 C215.223747,13.475 212.711345,11.11375 212.711345,7.16 C212.711345,3.2575 215.223747,0.92875 219.431023,0.92875 C223.648269,0.92875 226.065958,3.2 226.065958,7.16 C226.065958,11.11375 223.585958,13.475 219.431023,13.475 L219.431023,13.475 Z M215.481717,61.8275 L223.296832,61.8275 L223.296832,20.61 L215.481717,20.61 L215.481717,61.8275 Z M223.919948,63.0775 L214.858601,63.0775 C214.514641,63.0775 214.235485,62.7975 214.235485,62.4525 L214.235485,19.985 C214.235485,19.64 214.514641,19.36 214.858601,19.36 L223.919948,19.36 C224.263908,19.36 224.543063,19.64 224.543063,19.985 L224.543063,62.4525 C224.543063,62.7975 224.263908,63.0775 223.919948,63.0775 L223.919948,63.0775 Z" id="Fill-10" fill="#508ABF"></path>
                <g id="Group-14" transform="translate(234.291457, 17.676750)">
                    <mask id="mask-5" fill="white">
                        <use xlink:href="#path-4"></use>
                    </mask>
                    <g id="Clip-13"></g>
                    <path d="M27.5321126,26.344 L19.0490171,28.0615 C13.4185447,29.1415 10.9111276,30.94275 10.9111276,33.904 C10.9111276,37.5715 14.5002734,38.12025 16.638806,38.12025 C21.9938613,38.12025 27.5321126,35.33525 27.5321126,30.6765 L27.5321126,26.344 Z M16.638806,39.37025 C12.2720121,39.37025 9.66489648,37.3265 9.66489648,33.904 C9.66489648,29.139 14.8828663,27.58775 18.8084945,26.83525 L28.0318513,24.9665 C28.2162935,24.92775 28.4057206,24.9765 28.5490372,25.0965 C28.6948462,25.21525 28.7783437,25.3915 28.7783437,25.58025 L28.7783437,30.6765 C28.7783437,36.11775 22.6057608,39.37025 16.638806,39.37025 L16.638806,39.37025 Z M29.0026653,38.714 C29.0412985,38.714 29.0824241,38.71775 29.1210573,38.72525 C29.3703035,38.774 29.5634693,38.969 29.6133186,39.21775 C30.4208764,43.27025 32.8211176,45.00025 37.6390472,45.00025 C39.7115296,45.00025 41.2780422,44.57775 42.3049367,44.17275 L42.7785045,39.2815 C42.0756302,39.39775 41.2730573,39.45525 40.3483538,39.45525 C37.7861025,39.45525 36.5934593,38.25775 36.5934593,35.68775 L36.5934593,16.4915 C36.5934593,7.33525 30.3074693,2.084 19.3493588,2.084 C10.8139216,2.084 4.49303719,5.8515 2.32085628,12.194 L8.25042412,15.34775 C10.1284945,10.45025 13.915791,7.969 19.5176,7.969 C25.2303236,7.969 28.7783437,11.43025 28.7783437,17.0015 L28.7783437,19.29525 C28.7783437,19.599 28.5602533,19.86025 28.2611578,19.9115 L17.5074291,21.779 C7.04407236,23.62275 1.51205226,28.0215 1.51205226,34.49775 C1.51205226,41.074 6.43840402,45.00025 14.6909467,45.00025 C20.854806,45.00025 26.0092181,42.75525 28.4817407,38.99525 C28.5988864,38.81775 28.795791,38.714 29.0026653,38.714 L29.0026653,38.714 Z M37.6390472,46.25025 C32.7812382,46.25025 29.9149065,44.49525 28.7222633,40.75525 C25.8085749,44.219 20.6790874,46.25025 14.6909467,46.25025 C5.79410251,46.25025 0.265821106,41.7465 0.265821106,34.49775 C0.265821106,27.4365 6.31253467,22.48275 17.2930774,20.54775 L27.5321126,18.769 L27.5321126,17.0015 C27.5321126,12.129 24.5361729,9.219 19.5176,9.219 C14.2535196,9.219 10.7765347,11.6465 9.18509749,16.43525 C9.12777085,16.61025 8.99567035,16.749 8.82618291,16.81775 C8.65544925,16.8865 8.46477588,16.87525 8.30276583,16.789 L1.27402211,13.0515 C1.01106734,12.91275 0.883951759,12.60525 0.969941709,12.31775 C3.14835377,5.1265 10.0188261,0.834 19.3493588,0.834 C31.1000724,0.834 37.8396905,6.54025 37.8396905,16.4915 L37.8396905,35.68775 C37.8396905,37.5465 38.495208,38.20525 40.3483538,38.20525 C41.5472281,38.20525 42.5467055,38.09775 43.3181226,37.8865 C43.5150271,37.834 43.7268864,37.88025 43.8839116,38.01275 C44.0409367,38.144 44.1219417,38.3465 44.102002,38.5515 L43.508796,44.6665 C43.4876101,44.8915 43.3455397,45.08775 43.1386653,45.17775 C41.540997,45.879 39.6392482,46.25025 37.6390472,46.25025 L37.6390472,46.25025 Z" id="Fill-12" fill="#508ABF" mask="url(#mask-5)"></path>
                </g>
                <g id="Group-17" transform="translate(285.386935, 0.176750)">
                    <mask id="mask-7" fill="white">
                        <use xlink:href="#path-6"></use>
                    </mask>
                    <g id="Clip-16"></g>
                    <path d="M1.30767035,1.32325 L1.30767035,51.14825 C1.30767035,58.9995 4.51048442,62.4995 11.6925146,62.4995 C14.0217206,62.4995 16.4581025,62.02825 18.1504844,61.26075 L18.9767357,55.3195 C17.2507055,55.91325 15.9932583,56.10575 14.1475899,56.10575 C9.94405226,56.10575 9.1215397,53.822 9.1215397,49.87575 L9.1215397,1.32325 L1.30767035,1.32325 Z M11.6925146,63.7495 C3.7577608,63.7495 0.061439196,59.74575 0.061439196,51.14825 L0.061439196,0.69825 C0.061439196,0.35325 0.340594975,0.07325 0.684554774,0.07325 L9.74465528,0.07325 C10.0886151,0.07325 10.3677709,0.35325 10.3677709,0.69825 L10.3677709,49.87575 C10.3677709,53.78575 11.1803136,54.85575 14.1475899,54.85575 C16.1727156,54.85575 17.3765749,54.61825 19.5126151,53.79325 C19.7194894,53.71325 19.9525347,53.7495 20.1245146,53.887 C20.2977407,54.0245 20.3849769,54.24325 20.3538211,54.46325 L19.3381427,61.767 C19.3094794,61.972 19.1823638,62.14825 18.9991678,62.2395 C17.1123739,63.18575 14.3818814,63.7495 11.6925146,63.7495 L11.6925146,63.7495 Z" id="Fill-15" fill="#508ABF" mask="url(#mask-7)"></path>
                </g>
                <path d="M363.497214,61.827125 L370.549636,61.827125 L370.549636,7.019625 L358.407606,7.019625 L347.374722,39.043375 L343.401737,52.354625 C343.323224,52.619625 343.080209,52.799625 342.804792,52.799625 L342.636551,52.799625 C342.359887,52.799625 342.115626,52.617125 342.03836,52.350875 L338.142641,39.015875 L327.036229,7.019625 L314.637475,7.019625 L314.637475,61.827125 L321.774641,61.827125 L321.774641,30.007125 L321.099184,14.575875 C321.091707,14.405875 321.152772,14.240875 321.271164,14.117125 C321.570259,13.803375 322.245717,13.930875 322.392772,14.339625 L339.265495,61.827125 L345.922862,61.827125 L362.795586,14.339625 C362.941395,13.930875 363.573234,13.803375 363.873576,14.115875 C363.990722,14.238375 364.096651,14.404625 364.09042,14.573375 L363.497214,30.030875 L363.497214,61.827125 Z M371.172752,63.077125 L362.874098,63.077125 C362.530139,63.077125 362.250983,62.797125 362.250983,62.452125 L362.250983,30.007125 L362.69838,18.334625 L346.949757,62.662125 C346.860028,62.910875 346.625737,63.077125 346.361536,63.077125 L338.825576,63.077125 C338.562621,63.077125 338.327083,62.910875 338.238601,62.662125 L322.513656,18.404625 L323.020872,29.979625 L323.020872,62.452125 C323.020872,62.797125 322.742963,63.077125 322.397757,63.077125 L314.01436,63.077125 C313.6704,63.077125 313.391244,62.797125 313.391244,62.452125 L313.391244,6.394625 C313.391244,6.049625 313.6704,5.769625 314.01436,5.769625 L327.478641,5.769625 C327.744088,5.769625 327.979626,5.938375 328.066862,6.189625 L339.329053,38.634625 L342.726279,50.260875 L346.18831,38.660875 L357.373234,6.190875 C357.46047,5.938375 357.697254,5.769625 357.962702,5.769625 L371.172752,5.769625 C371.517958,5.769625 371.795867,6.049625 371.795867,6.394625 L371.795867,62.452125 C371.795867,62.797125 371.517958,63.077125 371.172752,63.077125 L371.172752,63.077125 Z" id="Fill-18" fill="#508ABF"></path>
                <g id="Group-22" transform="translate(382.592965, 17.676750)">
                    <mask id="mask-9" fill="white">
                        <use xlink:href="#path-8"></use>
                    </mask>
                    <g id="Clip-21"></g>
                    <path d="M10.5619337,19.349375 L31.9759236,19.349375 C30.9128884,12.863125 27.2203055,9.303125 21.5200442,9.303125 C15.4720844,9.303125 11.696004,12.771875 10.5619337,19.349375 M32.6974915,20.599375 L9.83413467,20.599375 C9.65343116,20.599375 9.48269749,20.520625 9.36430553,20.384375 C9.24591357,20.248125 9.19232563,20.066875 9.21725025,19.888125 C10.2790392,12.255625 14.6483256,8.053125 21.5200442,8.053125 C28.0328482,8.053125 32.3323457,12.368125 33.3143759,19.894375 C33.3380543,20.071875 33.2832201,20.251875 33.1660744,20.386875 C33.0464362,20.520625 32.8769487,20.599375 32.6974915,20.599375 M21.5200442,2.083125 C8.78480804,2.083125 1.48064724,9.904375 1.48064724,23.541875 C1.48064724,36.978125 9.19357186,45.000625 22.1132503,45.000625 C30.4891698,45.000625 36.3202854,42.003125 39.4582955,36.091875 L33.1224563,33.448125 C31.5023558,37.055625 27.6228382,39.030625 22.1132503,39.030625 C14.9548985,39.030625 10.2541146,34.654375 9.21600402,27.024375 C9.19232563,26.845625 9.24591357,26.665625 9.36555176,26.528125 C9.48269749,26.393125 9.65343116,26.314375 9.83413467,26.314375 L40.2833005,26.314375 C40.4203859,25.209375 40.5425166,23.619375 40.5425166,22.268125 C40.5425166,9.629375 33.4315216,2.083125 21.5200442,2.083125 M22.1132503,46.250625 C8.41343116,46.250625 0.23441608,37.760625 0.23441608,23.541875 C0.23441608,9.110625 7.99220503,0.833125 21.5200442,0.833125 C34.0222352,0.833125 41.7887477,9.046875 41.7887477,22.268125 C41.7887477,23.918125 41.6142754,25.915625 41.4422955,27.034375 C41.3949387,27.340625 41.1332302,27.564375 40.8266573,27.564375 L10.5606874,27.564375 C11.6947578,34.160625 15.7749186,37.780625 22.1132503,37.780625 C27.4371497,37.780625 30.9241045,35.925625 32.1965065,32.415625 C32.2538332,32.255625 32.3747176,32.126875 32.5304965,32.056875 C32.6887678,31.988125 32.8644864,31.986875 33.0202653,32.051875 L40.5574714,35.195625 C40.7157427,35.260625 40.8403658,35.390625 40.9014312,35.551875 C40.9624965,35.713125 40.9537729,35.890625 40.878999,36.045625 C37.5951799,42.816875 31.2805266,46.250625 22.1132503,46.250625" id="Fill-20" fill="#508ABF" mask="url(#mask-9)"></path>
                </g>
                <g id="Group-25" transform="translate(432.195980, 0.176750)">
                    <mask id="mask-11" fill="white">
                        <use xlink:href="#path-10"></use>
                    </mask>
                    <g id="Clip-24"></g>
                    <path d="M21.4534714,26.972625 C14.5269186,26.972625 10.3919236,32.231375 10.3919236,41.041375 C10.3919236,49.903875 14.5269186,55.195125 21.4534714,55.195125 C28.2254915,55.195125 32.4315216,49.967625 32.4315216,41.551375 L32.4315216,40.532625 C32.4315216,32.167625 28.2254915,26.972625 21.4534714,26.972625 M21.4534714,56.445125 C13.7455317,56.445125 9.14569246,50.687625 9.14569246,41.041375 C9.14569246,31.448875 13.7455317,25.722625 21.4534714,25.722625 C28.9931698,25.722625 33.6777528,31.397625 33.6777528,40.532625 L33.6777528,41.551375 C33.6777528,50.738875 28.9931698,56.445125 21.4534714,56.445125 M19.4208683,19.583875 C8.04028543,19.583875 1.24583317,27.636375 1.24583317,41.126375 C1.24583317,54.510125 8.04028543,62.500125 19.4208683,62.500125 C25.5049688,62.500125 30.6157628,59.487625 33.0882854,54.441375 C33.2129085,54.188875 33.4920643,54.045125 33.7674814,54.103875 C34.045391,54.158875 34.2510191,54.392625 34.2697126,54.675125 L34.7382955,61.650125 L41.4916221,61.650125 L41.4916221,1.322625 L33.6777528,1.322625 L33.6777528,26.687625 C33.6777528,26.975125 33.4820945,27.225125 33.2041849,27.295125 C32.9237829,27.362625 32.6371497,27.233875 32.503803,26.980125 C30.0325266,22.278875 25.2644462,19.583875 19.4208683,19.583875 M19.4208683,63.750125 C7.44084824,63.750125 -0.00039798995,55.081375 -0.00039798995,41.126375 C-0.00039798995,27.067625 7.44084824,18.333875 19.4208683,18.333875 C24.9192402,18.333875 29.5477427,20.557625 32.4315216,24.508875 L32.4315216,0.697625 C32.4315216,0.352625 32.7106774,0.072625 33.0546372,0.072625 L42.1147377,0.072625 C42.4586975,0.072625 42.7378533,0.352625 42.7378533,0.697625 L42.7378533,62.275125 C42.7378533,62.621375 42.4586975,62.900125 42.1147377,62.900125 L34.1550593,62.900125 C33.8273005,62.900125 33.5556221,62.645125 33.5331899,62.316375 L33.1630593,56.803875 C30.2269387,61.190125 25.2320442,63.750125 19.4208683,63.750125" id="Fill-23" fill="#508ABF" mask="url(#mask-11)"></path>
                </g>
                <path d="M492.939132,2.17875 C489.409805,2.17875 487.465684,3.9475 487.465684,7.16 C487.465684,10.4275 489.409805,12.225 492.939132,12.225 C496.413624,12.225 498.327835,10.4275 498.327835,7.16 C498.327835,3.90125 496.46472,2.17875 492.939132,2.17875 L492.939132,2.17875 Z M492.939132,13.475 C488.731855,13.475 486.219453,11.11375 486.219453,7.16 C486.219453,3.2575 488.731855,0.92875 492.939132,0.92875 C497.156378,0.92875 499.574066,3.2 499.574066,7.16 C499.574066,11.11375 497.094066,13.475 492.939132,13.475 L492.939132,13.475 Z M488.991071,61.8275 L496.804941,61.8275 L496.804941,20.61 L488.991071,20.61 L488.991071,61.8275 Z M497.428056,63.0775 L488.367956,63.0775 C488.02275,63.0775 487.74484,62.7975 487.74484,62.4525 L487.74484,19.985 C487.74484,19.64 488.02275,19.36 488.367956,19.36 L497.428056,19.36 C497.772016,19.36 498.051172,19.64 498.051172,19.985 L498.051172,62.4525 C498.051172,62.7975 497.772016,63.0775 497.428056,63.0775 L497.428056,63.0775 Z" id="Fill-26" fill="#508ABF"></path>
                <g id="Group-30" transform="translate(507.216080, 17.676750)">
                    <mask id="mask-13" fill="white">
                        <use xlink:href="#path-12"></use>
                    </mask>
                    <g id="Clip-29"></g>
                    <path d="M28.115598,26.344 L19.6312563,28.0615 C14.0032764,29.1415 11.4946131,30.944 11.4946131,33.904 C11.4946131,37.5715 15.0825126,38.12025 17.2222915,38.12025 C22.5773467,38.12025 28.115598,35.33525 28.115598,30.6765 L28.115598,26.344 Z M17.2222915,39.37025 C12.8554975,39.37025 10.2483819,37.3265 10.2483819,33.904 C10.2483819,29.14025 15.467598,27.58775 19.3919799,26.83525 L28.6153367,24.9665 C28.794794,24.92775 28.9879598,24.9765 29.1325226,25.0965 C29.2783317,25.21525 29.3618291,25.3915 29.3618291,25.58025 L29.3618291,30.6765 C29.3618291,36.32275 23.106995,39.37025 17.2222915,39.37025 L17.2222915,39.37025 Z M29.5861508,38.714 C29.6247839,38.714 29.6646633,38.71775 29.7045427,38.72525 C29.9537889,38.774 30.1469548,38.969 30.196804,39.21775 C31.0043618,43.27025 33.404603,45.00025 38.2225327,45.00025 C40.2937688,45.00025 41.8615276,44.57775 42.8884221,44.17275 L43.3632362,39.2815 C42.6591156,39.39775 41.8552965,39.45525 40.9318392,39.45525 C38.3708342,39.45525 37.1769447,38.25775 37.1769447,35.68775 L37.1769447,16.4915 C37.1769447,7.33525 30.892201,2.084 19.9328442,2.084 C11.397407,2.084 5.07652261,5.8515 2.90434171,12.194 L8.83390955,15.34775 C10.7119799,10.45025 14.4992764,7.969 20.1010854,7.969 C25.8125628,7.969 29.3618291,11.43025 29.3618291,17.0015 L29.3618291,19.29525 C29.3618291,19.599 29.1437387,19.86025 28.8446432,19.9115 L18.0909146,21.779 C7.62755779,23.62275 2.09553769,28.0215 2.09553769,34.49775 C2.09553769,41.074 7.02188945,45.00025 15.2744322,45.00025 C21.4382915,45.00025 26.5927035,42.75525 29.0664724,38.99525 C29.1823719,38.81775 29.3792764,38.714 29.5861508,38.714 L29.5861508,38.714 Z M38.2225327,46.25025 C33.3659698,46.25025 30.498392,44.49525 29.3057487,40.75525 C26.3920603,44.219 21.2638191,46.25025 15.2744322,46.25025 C6.37758794,46.25025 0.849306533,41.7465 0.849306533,34.49775 C0.849306533,27.4365 6.89726633,22.4815 17.8765628,20.54775 L28.115598,18.769 L28.115598,17.0015 C28.115598,12.129 25.1196583,9.219 20.1010854,9.219 C14.837005,9.219 11.3612663,11.6465 9.76858291,16.43525 C9.71001005,16.61025 9.57915578,16.749 9.40842211,16.81775 C9.23893467,16.889 9.04701508,16.8765 8.88500503,16.789 L1.85875377,13.0515 C1.59579899,12.91275 1.46743719,12.60525 1.55467337,12.31775 C3.7318392,5.1265 10.6010653,0.834 19.9328442,0.834 C31.6823116,0.834 38.4231759,6.54025 38.4231759,16.4915 L38.4231759,35.68775 C38.4231759,37.5465 39.0799397,38.20525 40.9318392,38.20525 C42.1307136,38.20525 43.130191,38.09775 43.901608,37.8865 C44.0997588,37.8315 44.3103719,37.88025 44.467397,38.01275 C44.6244221,38.144 44.7066734,38.3465 44.6867337,38.5515 L44.0935276,44.6665 C44.0723417,44.8915 43.9290251,45.08775 43.7221508,45.17775 C42.1232362,45.879 40.2227337,46.25025 38.2225327,46.25025 L38.2225327,46.25025 Z" id="Fill-28" fill="#508ABF" mask="url(#mask-13)"></path>
                </g>
                <path d="M610.586344,61.827125 L617.638766,61.827125 L617.638766,7.019625 L605.496736,7.019625 L594.462605,39.043375 L590.490866,52.354625 C590.4136,52.619625 590.169339,52.799625 589.893922,52.799625 L589.72568,52.799625 C589.449017,52.799625 589.206002,52.617125 589.127489,52.350875 L585.231771,39.015875 L574.125359,7.019625 L561.727851,7.019625 L561.727851,61.827125 L568.863771,61.827125 L568.863771,30.007125 L568.187067,14.577125 C568.17959,14.405875 568.241902,14.240875 568.359047,14.117125 C568.659389,13.802125 569.336092,13.929625 569.481902,14.339625 L586.354625,61.827125 L593.011992,61.827125 L609.885962,14.339625 C610.028032,13.930875 610.662364,13.802125 610.962706,14.115875 C611.079851,14.238375 611.184535,14.404625 611.17955,14.573375 L610.586344,30.030875 L610.586344,61.827125 Z M618.261881,63.077125 L609.963228,63.077125 C609.619268,63.077125 609.340113,62.797125 609.340113,62.452125 L609.340113,30.007125 L609.786263,18.338375 L594.038886,62.662125 C593.950404,62.910875 593.716113,63.077125 593.451912,63.077125 L585.914706,63.077125 C585.650505,63.077125 585.416213,62.910875 585.327731,62.662125 L569.60154,18.402125 L570.110002,29.978375 L570.110002,62.452125 C570.110002,62.797125 569.832092,63.077125 569.486886,63.077125 L561.104736,63.077125 C560.760776,63.077125 560.48162,62.797125 560.48162,62.452125 L560.48162,6.394625 C560.48162,6.049625 560.760776,5.769625 561.104736,5.769625 L574.569017,5.769625 C574.834464,5.769625 575.070002,5.938375 575.157238,6.189625 L586.418183,38.634625 L589.815409,50.260875 L593.277439,38.660875 L604.46361,6.190875 C604.5496,5.938375 604.78763,5.769625 605.053077,5.769625 L618.261881,5.769625 C618.607087,5.769625 618.884997,6.049625 618.884997,6.394625 L618.884997,62.452125 C618.884997,62.797125 618.607087,63.077125 618.261881,63.077125 L618.261881,63.077125 Z" id="Fill-31" fill="#508ABF"></path>
                <g id="Group-35" transform="translate(629.346734, 17.676750)">
                    <mask id="mask-15" fill="white">
                        <use xlink:href="#path-14"></use>
                    </mask>
                    <g id="Clip-34"></g>
                    <path d="M10.8971698,19.349375 L32.312406,19.349375 C31.2481246,12.863125 27.5555417,9.303125 21.8552804,9.303125 C15.8073206,9.303125 12.029994,12.771875 10.8971698,19.349375 M33.0339739,20.599375 L10.1693709,20.599375 C9.98866734,20.599375 9.81793367,20.520625 9.69954171,20.384375 C9.58114975,20.248125 9.52631558,20.066875 9.55248643,19.888125 C10.6130291,12.255625 14.9823156,8.053125 21.8552804,8.053125 C28.3693307,8.053125 32.6688281,12.368125 33.6521045,19.893125 C33.6745367,20.071875 33.6197025,20.251875 33.5025568,20.386875 C33.3841648,20.520625 33.2121849,20.599375 33.0339739,20.599375 M21.8552804,2.083125 C9.12004422,2.083125 1.81712965,9.904375 1.81712965,23.541875 C1.81712965,36.978125 9.52880804,45.000625 22.4484864,45.000625 C30.824406,45.000625 36.6567678,42.003125 39.7935317,36.091875 L33.4589387,33.448125 C31.8388382,37.055625 27.9580744,39.030625 22.4484864,39.030625 C15.2888884,39.030625 10.5893508,34.654375 9.55248643,27.024375 C9.52756181,26.845625 9.58114975,26.665625 9.69954171,26.528125 C9.8191799,26.393125 9.98866734,26.314375 10.1693709,26.314375 L40.6197829,26.314375 C40.7568683,25.208125 40.8777528,23.618125 40.8777528,22.268125 C40.8777528,9.629375 33.7667578,2.083125 21.8552804,2.083125 M22.4484864,46.250625 C8.74866734,46.250625 0.570898492,37.760625 0.570898492,23.541875 C0.570898492,9.110625 8.32744121,0.833125 21.8552804,0.833125 C34.3574714,0.833125 42.1239839,9.046875 42.1239839,22.268125 C42.1239839,23.915625 41.9495116,25.913125 41.7775317,27.034375 C41.7314211,27.340625 41.4697126,27.564375 41.1618935,27.564375 L10.8959236,27.564375 C12.029994,34.160625 16.1101548,37.780625 22.4484864,37.780625 C27.7736322,37.780625 31.2605869,35.925625 32.5317427,32.415625 C32.5903156,32.255625 32.7112,32.126875 32.8669789,32.056875 C33.0252503,31.988125 33.2009688,31.986875 33.3567477,32.051875 L40.8939538,35.195625 C41.0522251,35.260625 41.1768482,35.390625 41.2379136,35.551875 C41.2989789,35.713125 41.2902553,35.890625 41.2142352,36.045625 C37.9304161,42.816875 31.617009,46.250625 22.4484864,46.250625" id="Fill-33" fill="#508ABF" mask="url(#mask-15)"></path>
                </g>
                <g id="Group-38" transform="translate(679.195980, 0.176750)">
                    <mask id="mask-17" fill="white">
                        <use xlink:href="#path-16"></use>
                    </mask>
                    <g id="Clip-37"></g>
                    <path d="M21.5424764,26.972625 C14.6146774,26.972625 10.4796824,32.231375 10.4796824,41.041375 C10.4796824,49.903875 14.6146774,55.195125 21.5424764,55.195125 C28.3144965,55.195125 32.5205266,49.967625 32.5205266,41.551375 L32.5205266,40.532625 C32.5205266,32.167625 28.3144965,26.972625 21.5424764,26.972625 M21.5424764,56.445125 C13.8345367,56.445125 9.23345126,50.687625 9.23345126,41.041375 C9.23345126,31.448875 13.8345367,25.722625 21.5424764,25.722625 C29.0821749,25.722625 33.7667578,31.397625 33.7667578,40.532625 L33.7667578,41.551375 C33.7667578,50.738875 29.0821749,56.445125 21.5424764,56.445125 M19.5098734,19.583875 C8.12804422,19.583875 1.33359196,27.636375 1.33359196,41.126375 C1.33359196,54.510125 8.12804422,62.500125 19.5098734,62.500125 C25.5939739,62.500125 30.7035216,59.487625 33.1772905,54.441375 C33.3019136,54.186375 33.5835618,54.045125 33.8564864,54.103875 C34.1331497,54.158875 34.3387779,54.392625 34.3574714,54.675125 L34.8260543,61.650125 L41.5806271,61.650125 L41.5806271,1.322625 L33.7667578,1.322625 L33.7667578,26.687625 C33.7667578,26.975125 33.5710995,27.225125 33.2931899,27.295125 C33.0140342,27.361375 32.7261548,27.233875 32.5915618,26.980125 C30.1215317,22.278875 25.3534513,19.583875 19.5098734,19.583875 M19.5098734,63.750125 C7.52985327,63.750125 0.087360804,55.081375 0.087360804,41.126375 C0.087360804,27.067625 7.52985327,18.333875 19.5098734,18.333875 C25.0082452,18.333875 29.6355015,20.557625 32.5205266,24.508875 L32.5205266,0.697625 C32.5205266,0.352625 32.7984362,0.072625 33.1436422,0.072625 L42.2037427,0.072625 C42.5477025,0.072625 42.8268583,0.352625 42.8268583,0.697625 L42.8268583,62.275125 C42.8268583,62.621375 42.5477025,62.900125 42.2037427,62.900125 L34.2428181,62.900125 C33.9163055,62.900125 33.6433809,62.645125 33.6209487,62.316375 L33.2520643,56.803875 C30.3146975,61.188875 25.319803,63.750125 19.5098734,63.750125" id="Fill-36" fill="#508ABF" mask="url(#mask-17)"></path>
                </g>
                <path d="M740.028884,2.17875 C736.499558,2.17875 734.555437,3.9475 734.555437,7.16 C734.555437,10.4275 736.499558,12.225 740.028884,12.225 C743.503377,12.225 745.417588,10.4275 745.417588,7.16 C745.417588,3.90125 743.554472,2.17875 740.028884,2.17875 L740.028884,2.17875 Z M740.028884,13.475 C735.821608,13.475 733.309206,11.11375 733.309206,7.16 C733.309206,3.2575 735.821608,0.92875 740.028884,0.92875 C744.246131,0.92875 746.663819,3.2 746.663819,7.16 C746.663819,11.11375 744.183819,13.475 740.028884,13.475 L740.028884,13.475 Z M736.079578,61.8275 L743.894693,61.8275 L743.894693,20.61 L736.079578,20.61 L736.079578,61.8275 Z M744.517809,63.0775 L735.456462,63.0775 C735.112503,63.0775 734.833347,62.7975 734.833347,62.4525 L734.833347,19.985 C734.833347,19.64 735.112503,19.36 735.456462,19.36 L744.517809,19.36 C744.861769,19.36 745.140925,19.64 745.140925,19.985 L745.140925,62.4525 C745.140925,62.7975 744.861769,63.0775 744.517809,63.0775 L744.517809,63.0775 Z" id="Fill-39" fill="#508ABF"></path>
                <path d="M754.454259,26.495125 L761.875566,26.495125 C762.219526,26.495125 762.498681,26.775125 762.498681,27.120125 L762.498681,51.241375 C762.590903,60.691375 769.255747,62.676375 774.831385,62.676375 C778.993797,62.676375 782.717536,61.527625 785.370762,59.435125 L783.667164,54.106375 C781.718058,55.643875 779.613174,56.366375 777.118219,56.366375 C772.793797,56.366375 770.313797,53.941375 770.313797,49.711375 L770.313797,27.120125 C770.313797,26.775125 770.591707,26.495125 770.936913,26.495125 L785.131485,26.495125 L785.131485,20.610125 L770.936913,20.610125 C770.591707,20.610125 770.313797,20.330125 770.313797,19.985125 L770.313797,8.323875 L762.498681,10.521375 L762.498681,19.985125 C762.498681,20.330125 762.219526,20.610125 761.875566,20.610125 L754.454259,20.610125 L754.454259,26.495125 Z M774.831385,63.926375 C766.155124,63.926375 761.332209,59.423875 761.25245,51.247625 L761.25245,27.745125 L753.831144,27.745125 C753.487184,27.745125 753.208028,27.465125 753.208028,27.120125 L753.208028,19.985125 C753.208028,19.640125 753.487184,19.360125 753.831144,19.360125 L761.25245,19.360125 L761.25245,10.047625 C761.25245,9.766375 761.438139,9.521375 761.707325,9.445125 L770.768671,6.897625 C770.95436,6.843875 771.156249,6.885125 771.312028,7.001375 C771.467807,7.120125 771.560028,7.303875 771.560028,7.500125 L771.560028,19.360125 L785.754601,19.360125 C786.099807,19.360125 786.377717,19.640125 786.377717,19.985125 L786.377717,27.120125 C786.377717,27.465125 786.099807,27.745125 785.754601,27.745125 L771.560028,27.745125 L771.560028,49.711375 C771.560028,54.178875 774.582139,55.116375 777.118219,55.116375 C779.633114,55.116375 781.619606,54.330125 783.558742,52.562625 C783.714521,52.418875 783.933857,52.367625 784.136993,52.420125 C784.342621,52.475125 784.504631,52.631375 784.570681,52.833875 L786.686782,59.458875 C786.764048,59.698875 786.688028,59.962625 786.494862,60.126375 C783.601114,62.577625 779.458641,63.926375 774.831385,63.926375 L774.831385,63.926375 Z" id="Fill-41" fill="#508ABF"></path>
                <g id="Group-45" transform="translate(791.110553, 17.676750)">
                    <mask id="mask-19" fill="white">
                        <use xlink:href="#path-18"></use>
                    </mask>
                    <g id="Clip-44"></g>
                    <path d="M27.467409,26.344 L18.9830673,28.0615 C13.3550874,29.1415 10.8464241,30.944 10.8464241,33.904 C10.8464241,37.5715 14.4355698,38.12025 16.5753487,38.12025 C21.9291578,38.12025 27.467409,35.33525 27.467409,30.6765 L27.467409,26.344 Z M16.5753487,39.37025 C12.2073085,39.37025 9.60019296,37.3265 9.60019296,33.904 C9.60019296,29.14025 14.819409,27.58775 18.743791,26.83525 L27.9671477,24.9665 C28.1441126,24.92775 28.3397709,24.9765 28.4843337,25.0965 C28.6301427,25.21525 28.7136402,25.3915 28.7136402,25.58025 L28.7136402,30.6765 C28.7136402,36.32275 22.458806,39.37025 16.5753487,39.37025 L16.5753487,39.37025 Z M28.9379618,38.714 C28.976595,38.714 29.0164744,38.71775 29.0563538,38.72525 C29.3056,38.774 29.4987658,38.969 29.5486151,39.21775 C30.3574191,43.27025 32.7576603,45.00025 37.5743437,45.00025 C39.6468261,45.00025 41.2145849,44.57775 42.2402332,44.17275 L42.7150472,39.2815 C42.0121729,39.39775 41.2083538,39.45525 40.2848965,39.45525 C37.7226452,39.45525 36.5287558,38.25775 36.5287558,35.68775 L36.5287558,16.4915 C36.5287558,7.33525 30.2440121,2.084 19.2846553,2.084 C10.7504643,2.084 4.4295799,5.8515 2.25615276,12.194 L8.18696683,15.34775 C10.063791,10.45025 13.8510874,7.969 19.4541427,7.969 C25.1656201,7.969 28.7136402,11.43025 28.7136402,17.0015 L28.7136402,19.29525 C28.7136402,19.599 28.4955497,19.86025 28.1964543,19.9115 L17.4427256,21.779 C6.97936884,23.62275 1.44734874,28.0215 1.44734874,34.49775 C1.44734874,41.074 6.37494673,45.00025 14.6274894,45.00025 C20.7901025,45.00025 25.9445146,42.75525 28.4182834,38.99525 C28.5329367,38.81775 28.7310874,38.714 28.9379618,38.714 L28.9379618,38.714 Z M37.5743437,46.25025 C32.7190271,46.25025 29.8514492,44.49525 28.6575598,40.75525 C25.7451176,44.219 20.6156302,46.25025 14.6274894,46.25025 C5.72939899,46.25025 0.201117588,41.7465 0.201117588,34.49775 C0.201117588,27.4365 6.24907739,22.4815 17.2283739,20.54775 L27.467409,18.769 L27.467409,17.0015 C27.467409,12.129 24.4727156,9.219 19.4541427,9.219 C14.1900623,9.219 10.7130774,11.6465 9.1216402,16.43525 C9.06306734,16.61025 8.93221307,16.749 8.7614794,16.81775 C8.59199196,16.889 8.39882613,16.8765 8.23806231,16.789 L1.21056482,13.0515 C0.94761005,12.91275 0.819248241,12.60525 0.906484422,12.31775 C3.08489648,5.1265 9.95412261,0.834 19.2846553,0.834 C31.0341226,0.834 37.7749869,6.54025 37.7749869,16.4915 L37.7749869,35.68775 C37.7749869,37.5465 38.4317508,38.20525 40.2848965,38.20525 C41.4837709,38.20525 42.482002,38.09775 43.2534191,37.8865 C43.4515698,37.8315 43.6634291,37.88025 43.819208,38.01275 C43.9762332,38.144 44.0584844,38.3465 44.0385447,38.5515 L43.4453387,44.6665 C43.4241528,44.8915 43.2808362,45.08775 43.0739618,45.17775 C41.4775397,45.879 39.575791,46.25025 37.5743437,46.25025 L37.5743437,46.25025 Z" id="Fill-43" fill="#508ABF" mask="url(#mask-19)"></path>
                </g>
                <path d="M837.183819,26.495125 L844.605126,26.495125 C844.949085,26.495125 845.228241,26.775125 845.228241,27.120125 L845.228241,51.241375 C845.320462,60.691375 851.985307,62.676375 857.560945,62.676375 C861.723357,62.676375 865.447095,61.527625 868.100322,59.435125 L866.396724,54.106375 C864.447618,55.643875 862.342734,56.366375 859.847779,56.366375 C855.523357,56.366375 853.043357,53.941375 853.043357,49.711375 L853.043357,27.120125 C853.043357,26.775125 853.321266,26.495125 853.666472,26.495125 L867.861045,26.495125 L867.861045,20.610125 L853.666472,20.610125 C853.321266,20.610125 853.043357,20.330125 853.043357,19.985125 L853.043357,8.323875 L845.228241,10.521375 L845.228241,19.985125 C845.228241,20.330125 844.949085,20.610125 844.605126,20.610125 L837.183819,20.610125 L837.183819,26.495125 Z M857.560945,63.926375 C848.884683,63.926375 844.061769,59.423875 843.98201,51.247625 L843.98201,27.745125 L836.560704,27.745125 C836.216744,27.745125 835.937588,27.465125 835.937588,27.120125 L835.937588,19.985125 C835.937588,19.640125 836.216744,19.360125 836.560704,19.360125 L843.98201,19.360125 L843.98201,10.047625 C843.98201,9.766375 844.167698,9.521375 844.436884,9.445125 L853.498231,6.897625 C853.68392,6.843875 853.885809,6.885125 854.041588,7.001375 C854.197367,7.120125 854.289588,7.303875 854.289588,7.500125 L854.289588,19.360125 L868.484161,19.360125 C868.829367,19.360125 869.107276,19.640125 869.107276,19.985125 L869.107276,27.120125 C869.107276,27.465125 868.829367,27.745125 868.484161,27.745125 L854.289588,27.745125 L854.289588,49.711375 C854.289588,54.178875 857.311698,55.116375 859.847779,55.116375 C862.362673,55.116375 864.349166,54.330125 866.288302,52.562625 C866.44408,52.418875 866.66591,52.367625 866.866553,52.420125 C867.072181,52.475125 867.234191,52.631375 867.300241,52.833875 L869.416342,59.458875 C869.493608,59.698875 869.417588,59.962625 869.224422,60.126375 C866.330673,62.577625 862.188201,63.926375 857.560945,63.926375 L857.560945,63.926375 Z" id="Fill-46" fill="#508ABF"></path>
                <path d="M881.863075,2.17875 C878.333749,2.17875 876.389628,3.9475 876.389628,7.16 C876.389628,10.4275 878.333749,12.225 881.863075,12.225 C885.337568,12.225 887.251779,10.4275 887.251779,7.16 C887.251779,3.90125 885.388663,2.17875 881.863075,2.17875 L881.863075,2.17875 Z M881.863075,13.475 C877.655799,13.475 875.143397,11.11375 875.143397,7.16 C875.143397,3.2575 877.655799,0.92875 881.863075,0.92875 C886.080322,0.92875 888.49801,3.2 888.49801,7.16 C888.49801,11.11375 886.01801,13.475 881.863075,13.475 L881.863075,13.475 Z M877.913769,61.8275 L885.728884,61.8275 L885.728884,20.61 L877.913769,20.61 L877.913769,61.8275 Z M886.352,63.0775 L877.290653,63.0775 C876.946693,63.0775 876.667538,62.7975 876.667538,62.4525 L876.667538,19.985 C876.667538,19.64 876.946693,19.36 877.290653,19.36 L886.352,19.36 C886.69596,19.36 886.975116,19.64 886.975116,19.985 L886.975116,62.4525 C886.975116,62.7975 886.69596,63.0775 886.352,63.0775 L886.352,63.0775 Z" id="Fill-48" fill="#508ABF"></path>
                <path d="M919.121025,26.8955 C911.824342,26.8955 907.805246,31.98175 907.805246,41.218 C907.805246,50.4555 911.824342,55.54175 919.121025,55.54175 C926.472543,55.54175 930.521548,50.4555 930.521548,41.218 C930.521548,31.98175 926.472543,26.8955 919.121025,26.8955 M919.121025,56.79175 C911.137668,56.79175 906.559015,51.1155 906.559015,41.218 C906.559015,31.32175 911.137668,25.6455 919.121025,25.6455 C927.15797,25.6455 931.767779,31.32175 931.767779,41.218 C931.767779,51.1155 927.15797,56.79175 919.121025,56.79175 M919.121025,19.7605 C906.308523,19.7605 898.659156,27.78175 898.659156,41.218 C898.659156,54.65425 906.308523,62.67675 919.121025,62.67675 C931.933528,62.67675 939.582894,54.65425 939.582894,41.218 C939.582894,27.78175 931.933528,19.7605 919.121025,19.7605 M919.121025,63.92675 C905.528382,63.92675 897.412925,55.438 897.412925,41.218 C897.412925,26.99925 905.528382,18.5105 919.121025,18.5105 C932.713668,18.5105 940.829126,26.99925 940.829126,41.218 C940.829126,55.438 932.713668,63.92675 919.121025,63.92675" id="Fill-50" fill="#508ABF"></path>
                <g id="Group-54" transform="translate(950.874372, 17.676750)">
                    <mask id="mask-21" fill="white">
                        <use xlink:href="#path-20"></use>
                    </mask>
                    <g id="Clip-53"></g>
                    <path d="M31.1910472,44.150375 L39.0061628,44.150375 L39.0061628,17.256625 C39.0061628,7.756625 33.2884543,2.084125 23.7099216,2.084125 C19.2322131,2.084125 13.2104241,3.395375 9.95152965,9.646625 C9.82192161,9.896625 9.54525829,10.020375 9.26859497,9.969125 C8.99442412,9.910375 8.7937809,9.675375 8.7775799,9.395375 L8.38875578,2.932875 L1.55442412,2.932875 L1.55442412,44.150375 L9.36829347,44.150375 L9.36829347,22.267875 C9.36829347,11.975375 15.6393286,8.307875 21.5065849,8.307875 C25.9244744,8.307875 31.1910472,10.361625 31.1910472,20.144125 L31.1910472,44.150375 Z M39.6292784,45.400375 L30.5679317,45.400375 C30.2239719,45.400375 29.9448161,45.120375 29.9448161,44.775375 L29.9448161,20.144125 C29.9448161,13.021625 27.1844141,9.557875 21.5065849,9.557875 C16.2412583,9.557875 10.6145246,12.896625 10.6145246,22.267875 L10.6145246,44.775375 C10.6145246,45.120375 10.3366151,45.400375 9.99140905,45.400375 L0.931308543,45.400375 C0.586102513,45.400375 0.308192965,45.120375 0.308192965,44.775375 L0.308192965,2.307875 C0.308192965,1.962875 0.586102513,1.682875 0.931308543,1.682875 L8.97573065,1.682875 C9.30473568,1.682875 9.5776603,1.940375 9.5976,2.270375 L9.9016804,7.330375 C12.8502633,3.124125 17.6781628,0.834125 23.7099216,0.834125 C33.9140623,0.834125 40.252394,7.126625 40.252394,17.256625 L40.252394,44.775375 C40.252394,45.120375 39.9732382,45.400375 39.6292784,45.400375 L39.6292784,45.400375 Z" id="Fill-52" fill="#508ABF" mask="url(#mask-21)"></path>
                </g>
            </g>
        </g>
    </g>
</svg>